/* XPM */
static char *3[] = {
/* columns rows colors chars-per-pixel */
"24 28 15 1",
"  c #003366",
". c #333366",
"X c #336666",
"o c #336699",
"O c #666699",
"+ c #669999",
"@ c gray60",
"# c #9999cc",
"$ c #99cccc",
"% c gray80",
"& c #ccccff",
"* c #ccffcc",
"= c #ffccff",
"- c white",
"; c None",
/* pixels */
";;;;;;;;;;;;;;;;;;;;;;;;",
";;;;;;#ooOooXOoo@;;;;;;;",
";;;;;;@         @;;;;;;;",
";;;;;;@         +;;;;;;;",
";;;;;;+         #;;;;;;;",
";;;;;;#         +;;;;;;;",
";;;;;;+         @;;;;;;;",
";;;;;;@         +;;;;;;;",
";;;;;;#         #;;;;;;;",
";;;;;;+         +;;;;;;;",
";;;;;;@         @;;;;;;;",
";;;;;;#         +;;;;;;;",
";;;;;;+         #;;;;;;;",
"-                     #;",
";%                   O;;",
";;#                 X&;;",
";;;+                %;;;",
";;;-.              #;;;;",
";;;;&             +;;;;;",
";;;;;$           o;;;;;;",
";;;;;;+          %;;;;;;",
";;;;;;;o        $;;;;;;;",
";;;;;;;&X      @;;;;;;;;",
";;;;;;;;$     o;;;;;;;;;",
";;;;;;;;;@   X=;;;;;;;;;",
";;;;;;;;;;O  %;;;;;;;;;;",
";;;;;;;;;;- #;;;;;;;;;;;",
";;;;;;;;;;;*;;;;;;;;;;;;"
};
