<?xml version="1.0" encoding="UTF-8" standalone="no"?>
<!-- Created with Inkscape (http://www.inkscape.org/) -->
<svg
   xmlns:a="http://ns.adobe.com/AdobeSVGViewerExtensions/3.0/"
   xmlns:svg="http://www.w3.org/2000/svg"
   xmlns="http://www.w3.org/2000/svg"
   xmlns:xlink="http://www.w3.org/1999/xlink"
   version="1.0"
   width="48pt"
   height="48pt"
   viewBox="0 0 125.957 125.956"
   id="svg1"
   xml:space="preserve">



<defs
   id="defs106">
  <linearGradient
   id="linearGradient1865">
    <stop
   id="stop2120"
   style="stop-color:#418bde;stop-opacity:1"
   offset="0" />




    <stop
   id="stop1866"
   style="stop-color:#001b7b;stop-opacity:1"
   offset="1" />




  </linearGradient>



  <linearGradient
   id="linearGradient1862">
    <stop
   id="stop1864"
   style="stop-color:#a4cdec;stop-opacity:1"
   offset="0" />




    <stop
   id="stop1863"
   style="stop-color:#0068c6;stop-opacity:1"
   offset="1" />




  </linearGradient>



  <linearGradient
   x1="63.957001"
   y1="-17"
   x2="63.957001"
   y2="87.9981"
   id="XMLID_3_"
   gradientUnits="userSpaceOnUse">
			<stop
   id="stop49"
   style="stop-color:#ffffff;stop-opacity:1"
   offset="0" />







			<stop
   id="stop51"
   style="stop-color:#ffffff;stop-opacity:0"
   offset="1" />







		</linearGradient>



  <linearGradient
   x1="10.3398"
   y1="10.3921"
   x2="73.836899"
   y2="73.889198"
   id="XMLID_4_"
   gradientUnits="userSpaceOnUse">
			<stop
   id="stop58"
   style="stop-color:#ffffff;stop-opacity:1"
   offset="0" />







			<stop
   id="stop60"
   style="stop-color:#ffffff;stop-opacity:0"
   offset="1" />







		</linearGradient>



  <linearGradient
   x1="62.997101"
   y1="168.5029"
   x2="62.997101"
   y2="65.001404"
   id="XMLID_5_"
   gradientUnits="userSpaceOnUse">
			<stop
   id="stop67"
   style="stop-color:#ffffff;stop-opacity:1"
   offset="0" />







			<stop
   id="stop69"
   style="stop-color:#ffffff;stop-opacity:0"
   offset="1" />







		</linearGradient>



  <linearGradient
   x1="33.1147"
   y1="-141.0146"
   x2="33.1147"
   y2="164.3085"
   id="XMLID_7_"
   gradientUnits="userSpaceOnUse"
   gradientTransform="matrix(0.9999,-1.01e-2,1.01e-2,0.9999,-1.1444,0.3543)">
			<stop
   id="stop96"
   style="stop-color:#ffffff;stop-opacity:1"
   offset="0" />







			<stop
   id="stop98"
   style="stop-color:#ffffff;stop-opacity:0"
   offset="1" />







		</linearGradient>



  <linearGradient
   x1="61.226601"
   y1="51.561001"
   x2="61.226601"
   y2="141.4189"
   id="XMLID_6_"
   gradientUnits="userSpaceOnUse"
   gradientTransform="matrix(-1,0,0,1,122.4541,0)">
				<stop
   id="stop78"
   style="stop-color:#000072;stop-opacity:1"
   offset="0" />







				<stop
   id="stop80"
   style="stop-color:#3995e5;stop-opacity:1"
   offset="1" />







				<a:midPointStop
   offset="0"
   style="stop-color:#000072"
   id="midPointStop82" />







				<a:midPointStop
   offset="0.5"
   style="stop-color:#000072"
   id="midPointStop84" />







				<a:midPointStop
   offset="1"
   style="stop-color:#3995E5"
   id="midPointStop86" />







			</linearGradient>



  <linearGradient
   x1="62.977501"
   y1="182.5674"
   x2="62.977501"
   y2="61.8965"
   id="linearGradient1344"
   xlink:href="#linearGradient1862"
   gradientUnits="userSpaceOnUse" />



  <linearGradient
   x1="65.109993"
   y1="13.567519"
   x2="65.109993"
   y2="77.436874"
   id="linearGradient1346"
   xlink:href="#XMLID_3_"
   gradientUnits="userSpaceOnUse" />



  <linearGradient
   x1="26.564838"
   y1="25.929346"
   x2="73.836899"
   y2="73.889198"
   id="linearGradient1348"
   xlink:href="#XMLID_4_"
   gradientUnits="userSpaceOnUse" />



  <linearGradient
   x1="62.997101"
   y1="168.5029"
   x2="62.997101"
   y2="65.001404"
   id="linearGradient1350"
   xlink:href="#XMLID_5_"
   gradientUnits="userSpaceOnUse" />



  <linearGradient
   x1="61.226601"
   y1="51.561001"
   x2="61.226601"
   y2="141.4189"
   id="linearGradient1352"
   xlink:href="#XMLID_6_"
   gradientUnits="userSpaceOnUse"
   gradientTransform="matrix(-1,0,0,1,122.4541,0)" />



  <linearGradient
   x1="31.052742"
   y1="21.61375"
   x2="53.820477"
   y2="60.985329"
   id="linearGradient1354"
   xlink:href="#XMLID_7_"
   gradientUnits="userSpaceOnUse"
   gradientTransform="matrix(0.999949,-1.010049e-2,1.010049e-2,0.999949,0,0)" />



  <linearGradient
   x1="54.390072"
   y1="177.8828"
   x2="54.390072"
   y2="25.958462"
   id="linearGradient2118"
   xlink:href="#linearGradient1865"
   gradientUnits="userSpaceOnUse" />



<linearGradient
   x1="55.34412"
   y1="154.8063"
   x2="55.34412"
   y2="41.343369"
   id="linearGradient2089"
   xlink:href="#linearGradient1865"
   gradientUnits="userSpaceOnUse"
   gradientTransform="scale(1.000004,0.999996)" />


<linearGradient
   x1="55.34412"
   y1="154.8063"
   x2="55.34412"
   y2="41.343369"
   id="linearGradient2092"
   xlink:href="#linearGradient1865"
   gradientUnits="userSpaceOnUse"
   gradientTransform="scale(1.000004,0.999996)" />


<linearGradient
   x1="61.226601"
   y1="51.561001"
   x2="61.226601"
   y2="141.4189"
   id="linearGradient2422"
   xlink:href="#XMLID_6_"
   gradientUnits="userSpaceOnUse"
   gradientTransform="matrix(0,1,1,0,-3.4191497,3.3418856)" />
  



  



  



  



  



  



  



  



<linearGradient
   x1="31.052742"
   y1="21.61375"
   x2="53.820477"
   y2="60.985329"
   id="linearGradient3483"
   xlink:href="#XMLID_7_"
   gradientUnits="userSpaceOnUse"
   gradientTransform="matrix(0.999897,-1.0099965e-2,1.0099965e-2,0.999897,3.274998e-3,3.274914e-3)" /><linearGradient
   x1="62.997101"
   y1="168.5029"
   x2="62.997101"
   y2="65.001404"
   id="linearGradient3489"
   xlink:href="#XMLID_5_"
   gradientUnits="userSpaceOnUse"
   gradientTransform="matrix(0.999948,0,0,0.999948,3.274998e-3,3.274914e-3)" /><linearGradient
   x1="26.564838"
   y1="25.929346"
   x2="73.836899"
   y2="73.889198"
   id="linearGradient3492"
   xlink:href="#XMLID_4_"
   gradientUnits="userSpaceOnUse"
   gradientTransform="matrix(0.999948,0,0,0.999948,3.274998e-3,3.274914e-3)" /><linearGradient
   x1="65.109993"
   y1="13.567519"
   x2="65.109993"
   y2="77.436874"
   id="linearGradient3495"
   xlink:href="#XMLID_3_"
   gradientUnits="userSpaceOnUse"
   gradientTransform="matrix(0.999948,0,0,0.999948,3.274998e-3,3.274914e-3)" /><linearGradient
   x1="62.977501"
   y1="182.5674"
   x2="62.977501"
   y2="61.8965"
   id="linearGradient3498"
   xlink:href="#linearGradient1862"
   gradientUnits="userSpaceOnUse"
   gradientTransform="matrix(0.999948,0,0,0.999948,3.274998e-3,3.274914e-3)" /><linearGradient
   x1="55.34412"
   y1="154.8063"
   x2="55.34412"
   y2="41.343369"
   id="linearGradient3501"
   xlink:href="#linearGradient1865"
   gradientUnits="userSpaceOnUse"
   gradientTransform="matrix(0.999952,0,0,0.999944,3.274998e-3,3.274914e-3)" /><linearGradient
   x1="61.226601"
   y1="51.561001"
   x2="61.226601"
   y2="141.4189"
   id="linearGradient3503"
   xlink:href="#XMLID_6_"
   gradientUnits="userSpaceOnUse"
   gradientTransform="matrix(0,1,1,0,-3.4191497,3.3418856)" /></defs>















	





















<g
   id="g3505"><path
     d="M 125.95373,62.340033 C 126.30571,97.120225 98.394158,125.60074 63.614967,125.95273 C 28.834776,126.30471 0.35525669,98.394158 0.003274998,63.613967 C -0.3487067,28.834776 27.560842,0.35525661 62.340033,0.003274914 C 97.121225,-0.34870678 125.60074,27.560842 125.95373,62.340033 z"
     id="path18"
     style="fill:url(#linearGradient3501);fill-opacity:1" /><path
     d="M 119.28407,62.40703 C 119.59806,93.505413 94.644353,118.96909 63.546971,119.28407 C 32.450588,119.59806 6.9859119,94.644353 6.6709283,63.54697 C 6.3569446,32.450588 31.311647,6.9849118 62.40803,6.6709282 C 93.506413,6.3569445 118.97009,31.311647 119.28407,62.40703 z"
     id="path45"
     style="fill:url(#linearGradient3498);fill-opacity:1" /><path
     d="M 63.454975,11.25869 C 36.049401,11.535675 14.056544,33.978508 14.33353,61.383083 C 14.348529,62.894004 14.442524,64.384927 14.590516,65.85985 C 28.291804,71.579553 44.70295,74.830384 62.319034,74.652393 C 81.547035,74.458403 99.261113,70.209624 113.52237,63.190989 C 113.56537,62.260037 113.58637,61.323086 113.57937,60.379135 C 113.30238,32.97456 90.86155,10.981704 63.454975,11.25869 z"
     id="path54"
     style="fill:url(#linearGradient3495);fill-opacity:1" /><path
     d="M 64.966897,16.64341 C 89.697611,16.393423 110.51953,33.656525 115.65926,56.878317 C 112.60642,30.234703 89.848603,9.6707722 62.441028,9.9477578 C 33.153551,10.243742 9.6517732,34.227495 9.9477579,63.513972 C 10.09775,78.341201 16.324426,91.676508 26.229911,101.20001 C 18.769299,92.379471 14.221536,81.007062 14.095542,68.55371 C 13.808557,40.171186 36.584373,16.930395 64.966897,16.64341 z"
     id="path63"
     style="fill:url(#linearGradient3492);fill-opacity:1" /><path
     d="M 63.440976,110.71952 C 36.997351,110.9875 15.179486,90.540567 13.389579,64.494921 C 13.342581,65.47187 13.314583,66.452819 13.325582,67.442768 C 13.602568,94.878341 36.0674,116.8912 63.499973,116.61321 C 90.934546,116.33623 112.9464,93.873393 112.66942,66.43782 C 112.65942,65.448872 112.61242,64.466923 112.54442,63.491973 C 111.28249,89.568617 89.883601,110.45153 63.440976,110.71952 z"
     id="path72"
     style="opacity:0.5;fill:url(#linearGradient3489)" /><g
     transform="matrix(0.999948,0,0,0.999948,3.1065607,3.2745902e-3)"
     id="g2418"><path
       d="M 70.050851,36.532986 C 70.050851,36.532986 69.837851,57.586986 69.668851,74.245986 C 76.796851,67.261985 83.943851,60.257985 83.943851,60.257985 C 85.456851,58.775986 87.428851,58.046985 89.390851,58.066986 C 91.353851,58.086986 93.309851,58.855986 94.79085,60.367986 C 97.755851,63.393985 97.706851,68.252986 94.681851,71.215986 L 67.179851,98.165985 C 67.013851,98.327986 66.83685,98.481986 66.658851,98.628986 C 66.599851,98.675986 66.541851,98.718985 66.481851,98.765986 C 66.355851,98.863986 66.22385,98.954986 66.09185,99.046986 C 66.026851,99.089986 65.959851,99.134985 65.89485,99.177986 C 65.714851,99.288986 65.535851,99.394986 65.34785,99.491986 C 65.28585,99.524986 65.218851,99.553986 65.156851,99.583986 C 65.016851,99.651986 64.876851,99.716986 64.733851,99.774986 C 64.647851,99.809985 64.562851,99.840986 64.47585,99.874986 C 64.34485,99.923986 64.214851,99.964986 64.08285,100.00799 C 64.00285,100.03099 63.922851,100.05899 63.839851,100.07999 C 63.637851,100.13899 63.42885,100.18699 63.22085,100.22499 C 63.181851,100.23499 63.135851,100.23899 63.091851,100.24599 C 62.913851,100.27699 62.736851,100.29899 62.555851,100.31799 C 62.48585,100.32399 62.416851,100.32999 62.345851,100.33399 C 62.183851,100.34399 62.020851,100.35199 61.856851,100.35199 C 61.794851,100.35399 61.73185,100.35599 61.670851,100.35399 C 61.445851,100.34999 61.223851,100.33799 61.000851,100.31699 C 60.996851,100.31699 60.991851,100.31499 60.991851,100.31499 C 60.773851,100.29199 60.560851,100.25399 60.348851,100.21499 C 60.27585,100.19899 60.199851,100.18399 60.122851,100.16599 C 59.983851,100.13299 59.841851,100.09999 59.70485,100.05899 C 59.61685,100.03599 59.528851,100.00999 59.444851,99.980986 C 59.309851,99.937986 59.176851,99.890986 59.046851,99.837985 C 58.967851,99.806986 58.887851,99.778986 58.807851,99.745986 C 58.804851,99.745986 58.804851,99.745986 58.802851,99.743985 C 58.611851,99.661986 58.426851,99.571986 58.245851,99.477985 C 58.16585,99.436986 58.087851,99.389986 58.011851,99.342986 C 57.886851,99.274986 57.764851,99.199986 57.646851,99.123986 C 57.574851,99.074986 57.500851,99.029986 57.430851,98.978986 C 57.281851,98.873986 57.136851,98.765986 56.995851,98.652986 C 56.960851,98.623986 56.92385,98.597986 56.888851,98.570986 C 56.710851,98.418985 56.54085,98.261986 56.378851,98.097986 C 56.362851,98.081985 56.34785,98.070986 56.329851,98.054986 L 29.381851,70.554986 C 26.414851,67.527986 26.46485,62.670986 29.491851,59.705986 C 32.516851,56.739985 37.372851,56.789986 40.337851,59.814986 L 54.327851,74.088986 L 54.70885,36.374986 C 54.751851,32.138986 58.221851,28.737986 62.456851,28.780986 C 66.691851,28.823986 70.093851,32.296986 70.050851,36.532986 z"
       id="path89"
       style="opacity:0.2;fill:url(#linearGradient3503)" /><path
       d="M 68.050851,36.532986 C 68.050851,36.532986 67.83785,57.586986 67.668851,74.245986 C 74.796851,67.261986 81.943851,60.257986 81.943851,60.257986 C 83.456851,58.775986 85.428851,58.046986 87.390851,58.066986 C 89.35385,58.086986 91.309851,58.855986 92.790851,60.367986 C 95.755851,63.393986 95.706851,68.252986 92.681851,71.215986 L 65.179851,98.165986 C 65.013851,98.327986 64.836851,98.481986 64.65885,98.628986 C 64.599851,98.675985 64.541851,98.718986 64.481851,98.765985 C 64.355851,98.863985 64.223851,98.954986 64.091851,99.046986 C 64.02685,99.089986 63.959851,99.134986 63.894851,99.177985 C 63.714851,99.288986 63.53585,99.394986 63.347851,99.491986 C 63.285851,99.524985 63.218851,99.553985 63.156851,99.583986 C 63.01685,99.651986 62.876851,99.716985 62.73385,99.774986 C 62.647851,99.809986 62.562851,99.840986 62.475851,99.874985 C 62.344851,99.923986 62.21485,99.964986 62.082851,100.00799 C 62.002851,100.03099 61.922851,100.05899 61.83985,100.07999 C 61.637851,100.13899 61.428851,100.18699 61.220851,100.22499 C 61.181851,100.23499 61.135851,100.23899 61.091851,100.24599 C 60.913851,100.27699 60.736851,100.29899 60.555851,100.31799 C 60.485851,100.32399 60.41685,100.32999 60.34585,100.33399 C 60.183851,100.34399 60.020851,100.35199 59.856851,100.35199 C 59.79485,100.35399 59.731851,100.35599 59.670851,100.35399 C 59.445851,100.34999 59.223851,100.33799 59.000851,100.31699 C 58.996851,100.31699 58.991851,100.31499 58.991851,100.31499 C 58.773851,100.29199 58.560851,100.25399 58.348851,100.21499 C 58.275851,100.19899 58.199851,100.18399 58.122851,100.16599 C 57.983851,100.13299 57.841851,100.09999 57.704851,100.05899 C 57.616851,100.03599 57.528851,100.00999 57.44485,99.980986 C 57.309851,99.937985 57.17685,99.890986 57.046851,99.837986 C 56.967851,99.806986 56.88785,99.778986 56.80785,99.745986 C 56.804851,99.745986 56.804851,99.745986 56.802851,99.743986 C 56.61185,99.661986 56.42685,99.571986 56.245851,99.477986 C 56.165851,99.436986 56.087851,99.389985 56.01185,99.342986 C 55.886851,99.274986 55.764851,99.199986 55.646851,99.123986 C 55.57485,99.074986 55.50085,99.029986 55.43085,98.978986 C 55.281851,98.873985 55.136851,98.765985 54.995851,98.652985 C 54.960851,98.623986 54.923851,98.597986 54.888851,98.570986 C 54.710851,98.418986 54.540851,98.261986 54.378851,98.097986 C 54.362851,98.081986 54.347851,98.070986 54.32985,98.054986 L 27.38185,70.554986 C 24.414851,67.527986 24.464851,62.670986 27.491851,59.705985 C 30.516851,56.739986 35.372851,56.789986 38.337851,59.814986 L 52.327851,74.088985 L 52.708851,36.374986 C 52.751851,32.138985 56.22185,28.737986 60.456851,28.780985 C 64.69185,28.823986 68.093851,32.296986 68.050851,36.532986 z"
       id="path91"
       style="fill:#ffffff;fill-opacity:1" /></g><path
     d="M 52.923523,30.041713 C 47.866786,25.931927 42.02609,22.908084 35.686419,21.301167 C 24.435004,29.070763 15.86245,41.425121 11.884657,56.118357 C 17.624359,53.271505 23.988028,51.645589 30.706678,51.577593 C 32.40959,51.560594 34.088502,51.652589 35.744416,51.83458 C 39.882201,43.083035 45.788894,35.605424 52.923523,30.041713 z"
     id="path101"
     style="opacity:0.6;fill:url(#linearGradient3483);fill-opacity:1" /></g>









</svg>