<?xml version="1.0" encoding="UTF-8" standalone="no"?>
<!-- Created with Inkscape (http://www.inkscape.org/) -->
<svg
   xmlns:a="http://ns.adobe.com/AdobeSVGViewerExtensions/3.0/"
   xmlns:svg="http://www.w3.org/2000/svg"
   xmlns="http://www.w3.org/2000/svg"
   xmlns:xlink="http://www.w3.org/1999/xlink"
   version="1.0"
   width="48pt"
   height="48pt"
   viewBox="0 0 125.957 125.956"
   id="svg1"
   xml:space="preserve">



<defs
   id="defs106">
  <linearGradient
   id="linearGradient1865">
    <stop
   id="stop2120"
   style="stop-color:#418bde;stop-opacity:1"
   offset="0" />




    <stop
   id="stop1866"
   style="stop-color:#001b7b;stop-opacity:1"
   offset="1" />




  </linearGradient>



  <linearGradient
   id="linearGradient1862">
    <stop
   id="stop1864"
   style="stop-color:#a4cdec;stop-opacity:1"
   offset="0" />




    <stop
   id="stop1863"
   style="stop-color:#0068c6;stop-opacity:1"
   offset="1" />




  </linearGradient>



  <linearGradient
   x1="63.957001"
   y1="-17"
   x2="63.957001"
   y2="87.9981"
   id="XMLID_3_"
   gradientUnits="userSpaceOnUse">
			<stop
   id="stop49"
   style="stop-color:#ffffff;stop-opacity:1"
   offset="0" />







			<stop
   id="stop51"
   style="stop-color:#ffffff;stop-opacity:0"
   offset="1" />







		</linearGradient>



  <linearGradient
   x1="10.3398"
   y1="10.3921"
   x2="73.836899"
   y2="73.889198"
   id="XMLID_4_"
   gradientUnits="userSpaceOnUse">
			<stop
   id="stop58"
   style="stop-color:#ffffff;stop-opacity:1"
   offset="0" />







			<stop
   id="stop60"
   style="stop-color:#ffffff;stop-opacity:0"
   offset="1" />







		</linearGradient>



  <linearGradient
   x1="62.997101"
   y1="168.5029"
   x2="62.997101"
   y2="65.001404"
   id="XMLID_5_"
   gradientUnits="userSpaceOnUse">
			<stop
   id="stop67"
   style="stop-color:#ffffff;stop-opacity:1"
   offset="0" />







			<stop
   id="stop69"
   style="stop-color:#ffffff;stop-opacity:0"
   offset="1" />







		</linearGradient>



  <linearGradient
   x1="33.1147"
   y1="-141.0146"
   x2="33.1147"
   y2="164.3085"
   id="XMLID_7_"
   gradientUnits="userSpaceOnUse"
   gradientTransform="matrix(0.9999,-1.01e-2,1.01e-2,0.9999,-1.1444,0.3543)">
			<stop
   id="stop96"
   style="stop-color:#ffffff;stop-opacity:1"
   offset="0" />







			<stop
   id="stop98"
   style="stop-color:#ffffff;stop-opacity:0"
   offset="1" />







		</linearGradient>



  <linearGradient
   x1="61.226601"
   y1="51.561001"
   x2="61.226601"
   y2="141.4189"
   id="XMLID_6_"
   gradientUnits="userSpaceOnUse"
   gradientTransform="matrix(-1,0,0,1,122.4541,0)">
				<stop
   id="stop78"
   style="stop-color:#000072;stop-opacity:1"
   offset="0" />







				<stop
   id="stop80"
   style="stop-color:#3995e5;stop-opacity:1"
   offset="1" />







				<a:midPointStop
   id="midPointStop82"
   style="stop-color:#000072"
   offset="0" />







				<a:midPointStop
   id="midPointStop84"
   style="stop-color:#000072"
   offset="0.5" />







				<a:midPointStop
   id="midPointStop86"
   style="stop-color:#3995E5"
   offset="1" />







			</linearGradient>



  <linearGradient
   x1="62.977501"
   y1="182.5674"
   x2="62.977501"
   y2="61.8965"
   id="linearGradient1344"
   xlink:href="#linearGradient1862"
   gradientUnits="userSpaceOnUse" />



  <linearGradient
   x1="65.109993"
   y1="13.567519"
   x2="65.109993"
   y2="77.436874"
   id="linearGradient1346"
   xlink:href="#XMLID_3_"
   gradientUnits="userSpaceOnUse" />



  <linearGradient
   x1="26.564838"
   y1="25.929346"
   x2="73.836899"
   y2="73.889198"
   id="linearGradient1348"
   xlink:href="#XMLID_4_"
   gradientUnits="userSpaceOnUse" />



  <linearGradient
   x1="62.997101"
   y1="168.5029"
   x2="62.997101"
   y2="65.001404"
   id="linearGradient1350"
   xlink:href="#XMLID_5_"
   gradientUnits="userSpaceOnUse" />



  <linearGradient
   x1="61.226601"
   y1="51.561001"
   x2="61.226601"
   y2="141.4189"
   id="linearGradient1352"
   xlink:href="#XMLID_6_"
   gradientUnits="userSpaceOnUse"
   gradientTransform="matrix(-1,0,0,1,122.4541,0)" />



  <linearGradient
   x1="31.052742"
   y1="21.61375"
   x2="53.820477"
   y2="60.985329"
   id="linearGradient1354"
   xlink:href="#XMLID_7_"
   gradientUnits="userSpaceOnUse"
   gradientTransform="matrix(0.999949,-1.010049e-2,1.010049e-2,0.999949,0,0)" />



  <linearGradient
   x1="54.390072"
   y1="177.8828"
   x2="54.390072"
   y2="25.958462"
   id="linearGradient2118"
   xlink:href="#linearGradient1865"
   gradientUnits="userSpaceOnUse" />



<linearGradient
   x1="55.34412"
   y1="154.8063"
   x2="55.34412"
   y2="41.343369"
   id="linearGradient2089"
   xlink:href="#linearGradient1865"
   gradientUnits="userSpaceOnUse"
   gradientTransform="scale(1.000004,0.999996)" />


<linearGradient
   x1="55.34412"
   y1="154.8063"
   x2="55.34412"
   y2="41.343369"
   id="linearGradient2092"
   xlink:href="#linearGradient1865"
   gradientUnits="userSpaceOnUse"
   gradientTransform="scale(1.000004,0.999996)" />



  



  



  



  



  



  



  



  



<linearGradient
   x1="31.052742"
   y1="21.61375"
   x2="53.820477"
   y2="60.985329"
   id="linearGradient2532"
   xlink:href="#XMLID_7_"
   gradientUnits="userSpaceOnUse"
   gradientTransform="matrix(0.999897,-1.0099965e-2,1.0099965e-2,0.999897,3.274998e-3,3.274914e-3)" /><linearGradient
   x1="62.997101"
   y1="168.5029"
   x2="62.997101"
   y2="65.001404"
   id="linearGradient2538"
   xlink:href="#XMLID_5_"
   gradientUnits="userSpaceOnUse"
   gradientTransform="matrix(0.999948,0,0,0.999948,3.274998e-3,3.274914e-3)" /><linearGradient
   x1="26.564838"
   y1="25.929346"
   x2="73.836899"
   y2="73.889198"
   id="linearGradient2541"
   xlink:href="#XMLID_4_"
   gradientUnits="userSpaceOnUse"
   gradientTransform="matrix(0.999948,0,0,0.999948,3.274998e-3,3.274914e-3)" /><linearGradient
   x1="65.109993"
   y1="13.567519"
   x2="65.109993"
   y2="77.436874"
   id="linearGradient2544"
   xlink:href="#XMLID_3_"
   gradientUnits="userSpaceOnUse"
   gradientTransform="matrix(0.999948,0,0,0.999948,3.274998e-3,3.274914e-3)" /><linearGradient
   x1="62.977501"
   y1="182.5674"
   x2="62.977501"
   y2="61.8965"
   id="linearGradient2547"
   xlink:href="#linearGradient1862"
   gradientUnits="userSpaceOnUse"
   gradientTransform="matrix(0.999948,0,0,0.999948,3.274998e-3,3.274914e-3)" /><linearGradient
   x1="55.34412"
   y1="154.8063"
   x2="55.34412"
   y2="41.343369"
   id="linearGradient2550"
   xlink:href="#linearGradient1865"
   gradientUnits="userSpaceOnUse"
   gradientTransform="matrix(0.999952,0,0,0.999944,3.274998e-3,3.274914e-3)" /><linearGradient
   x1="61.226601"
   y1="51.561001"
   x2="61.226601"
   y2="141.4189"
   id="linearGradient2552"
   xlink:href="#XMLID_6_"
   gradientUnits="userSpaceOnUse"
   gradientTransform="matrix(0.7071068,-0.7071068,-0.7071068,-0.7071068,63.467282,153.61525)" /><linearGradient
   x1="31.052742"
   y1="21.61375"
   x2="53.820477"
   y2="60.985329"
   id="linearGradient2615"
   xlink:href="#XMLID_7_"
   gradientUnits="userSpaceOnUse"
   gradientTransform="matrix(0.999897,-1.0099965e-2,1.0099965e-2,0.999897,3.274998e-3,3.274914e-3)" /><linearGradient
   x1="62.997101"
   y1="168.5029"
   x2="62.997101"
   y2="65.001404"
   id="linearGradient2621"
   xlink:href="#XMLID_5_"
   gradientUnits="userSpaceOnUse"
   gradientTransform="matrix(0.999948,0,0,0.999948,3.274998e-3,3.274914e-3)" /><linearGradient
   x1="26.564838"
   y1="25.929346"
   x2="73.836899"
   y2="73.889198"
   id="linearGradient2624"
   xlink:href="#XMLID_4_"
   gradientUnits="userSpaceOnUse"
   gradientTransform="matrix(0.999948,0,0,0.999948,3.274998e-3,3.274914e-3)" /><linearGradient
   x1="65.109993"
   y1="13.567519"
   x2="65.109993"
   y2="77.436874"
   id="linearGradient2627"
   xlink:href="#XMLID_3_"
   gradientUnits="userSpaceOnUse"
   gradientTransform="matrix(0.999948,0,0,0.999948,3.274998e-3,3.274914e-3)" /><linearGradient
   x1="62.977501"
   y1="182.5674"
   x2="62.977501"
   y2="61.8965"
   id="linearGradient2630"
   xlink:href="#linearGradient1862"
   gradientUnits="userSpaceOnUse"
   gradientTransform="matrix(0.999948,0,0,0.999948,3.274998e-3,3.274914e-3)" /><linearGradient
   x1="55.34412"
   y1="154.8063"
   x2="55.34412"
   y2="41.343369"
   id="linearGradient2633"
   xlink:href="#linearGradient1865"
   gradientUnits="userSpaceOnUse"
   gradientTransform="matrix(0.999952,0,0,0.999944,3.274998e-3,3.274914e-3)" /><linearGradient
   x1="61.226601"
   y1="51.561001"
   x2="61.226601"
   y2="141.4189"
   id="linearGradient2635"
   xlink:href="#XMLID_6_"
   gradientUnits="userSpaceOnUse"
   gradientTransform="matrix(0.7071068,-0.7071068,-0.7071068,-0.7071068,63.467282,153.61525)" /></defs>















	





















<g
   id="g2637"><path
     d="M 125.95373,62.340033 C 126.30571,97.120225 98.394158,125.60074 63.614967,125.95273 C 28.834776,126.30471 0.35525669,98.394158 0.003274998,63.613967 C -0.3487067,28.834776 27.560842,0.35525661 62.340033,0.003274914 C 97.121225,-0.34870678 125.60074,27.560842 125.95373,62.340033 z"
     id="path18"
     style="fill:url(#linearGradient2633);fill-opacity:1" /><path
     d="M 119.28407,62.40703 C 119.59806,93.505413 94.644353,118.96909 63.546971,119.28407 C 32.450588,119.59806 6.9859119,94.644353 6.6709283,63.54697 C 6.3569446,32.450588 31.311647,6.9849118 62.40803,6.6709282 C 93.506413,6.3569445 118.97009,31.311647 119.28407,62.40703 z"
     id="path45"
     style="fill:url(#linearGradient2630);fill-opacity:1" /><path
     d="M 63.454975,11.25869 C 36.049401,11.535675 14.056544,33.978508 14.33353,61.383083 C 14.348529,62.894004 14.442524,64.384927 14.590516,65.85985 C 28.291804,71.579553 44.70295,74.830384 62.319034,74.652393 C 81.547035,74.458403 99.261113,70.209624 113.52237,63.190989 C 113.56537,62.260037 113.58637,61.323086 113.57937,60.379135 C 113.30238,32.97456 90.86155,10.981704 63.454975,11.25869 z"
     id="path54"
     style="fill:url(#linearGradient2627);fill-opacity:1" /><path
     d="M 64.966897,16.64341 C 89.697611,16.393423 110.51953,33.656525 115.65926,56.878317 C 112.60642,30.234703 89.848603,9.6707722 62.441028,9.9477578 C 33.153551,10.243742 9.6517732,34.227495 9.9477579,63.513972 C 10.09775,78.341201 16.324426,91.676508 26.229911,101.20001 C 18.769299,92.379471 14.221536,81.007062 14.095542,68.55371 C 13.808557,40.171186 36.584373,16.930395 64.966897,16.64341 z"
     id="path63"
     style="fill:url(#linearGradient2624);fill-opacity:1" /><path
     d="M 63.440976,110.71952 C 36.997351,110.9875 15.179486,90.540567 13.389579,64.494921 C 13.342581,65.47187 13.314583,66.452819 13.325582,67.442768 C 13.602568,94.878341 36.0674,116.8912 63.499973,116.61321 C 90.934546,116.33623 112.9464,93.873393 112.66942,66.43782 C 112.65942,65.448872 112.61242,64.466923 112.54442,63.491973 C 111.28249,89.568617 89.883601,110.45153 63.440976,110.71952 z"
     id="path72"
     style="opacity:0.5;fill:url(#linearGradient2621)" /><g
     transform="matrix(0.70707,-0.70707,-0.70707,-0.70707,63.521885,153.35077)"
     id="g2418"><path
       d="M 34.985796,78.194462 C 34.985796,78.194462 50.023837,63.457649 61.92303,51.797458 C 51.944337,51.695636 41.938069,51.594518 41.938069,51.594518 C 39.820285,51.572597 37.910389,50.693664 36.537188,49.292179 C 35.163281,47.889986 34.323944,45.963119 34.345865,43.846749 C 34.388997,39.610474 37.859478,36.209288 42.093633,36.25313 L 80.597011,36.643454 C 80.828944,36.646281 81.062996,36.662546 81.292806,36.684465 C 81.367758,36.692949 81.439175,36.703558 81.514837,36.712748 C 81.673228,36.732547 81.830914,36.76154 81.989307,36.789824 C 82.065672,36.80538 82.144868,36.820936 82.221238,36.836494 C 82.427004,36.885282 82.628529,36.936902 82.830057,37.001249 C 82.897232,37.021756 82.965112,37.048625 83.030166,37.071253 C 83.177244,37.122164 83.322201,37.175196 83.464331,37.235301 C 83.549889,37.271363 83.631914,37.309548 83.717476,37.347025 C 83.844754,37.405008 83.965669,37.467938 84.089417,37.53087 C 84.162249,37.571175 84.238614,37.607943 84.312154,37.651784 C 84.496709,37.752901 84.678436,37.866746 84.852384,37.986954 C 84.887031,38.007459 84.922387,38.037158 84.958449,38.063321 C 85.106234,38.167265 85.24695,38.276867 85.38837,38.391417 C 85.442111,38.436674 85.495143,38.481221 85.548176,38.528597 C 85.669799,38.636077 85.790714,38.745679 85.906679,38.861644 C 85.951934,38.90407 85.997897,38.947205 86.039615,38.991751 C 86.195886,39.153678 86.344378,39.319142 86.487214,39.491675 C 86.490043,39.494505 86.492164,39.499453 86.492164,39.499453 C 86.63005,39.669867 86.753793,39.847351 86.876123,40.024835 C 86.916428,40.087768 86.959561,40.152114 87.001282,40.219289 C 87.076234,40.34091 87.15331,40.464655 87.221192,40.590521 C 87.267153,40.669009 87.310993,40.749619 87.349881,40.829525 C 87.414935,40.95539 87.475746,41.082669 87.530193,41.212071 C 87.564135,41.289852 87.600904,41.366219 87.634138,41.446122 C 87.63626,41.448243 87.63626,41.448243 87.636259,41.451073 C 87.713334,41.644112 87.780509,41.838566 87.842027,42.033022 C 87.869607,42.118581 87.891525,42.206969 87.912031,42.293943 C 87.952336,42.430415 87.98557,42.569715 88.015269,42.706894 C 88.031533,42.792453 88.052038,42.876599 88.065473,42.962159 C 88.096586,43.141763 88.122749,43.320661 88.142548,43.500266 C 88.146792,43.545522 88.15457,43.590071 88.160226,43.633911 C 88.17861,43.867257 88.187804,44.098479 88.186389,44.328997 C 88.186388,44.351625 88.189218,44.370008 88.190631,44.39405 L 87.800308,82.8946 C 87.757882,87.132997 84.28811,90.53206 80.051125,90.48822 C 75.814848,90.446501 72.416493,86.977435 72.458921,82.741865 L 72.659738,62.756198 L 45.722506,89.154616 C 42.696796,92.119514 37.838266,92.070725 34.874073,89.045721 C 31.909882,86.020718 31.960086,81.159359 34.985796,78.194462 z"
       id="path89"
       style="opacity:0.2;fill:url(#linearGradient2635)" /><path
       d="M 36.400009,79.608675 C 36.400009,79.608675 51.43805,64.871862 63.337242,53.211672 C 53.358552,53.109849 43.352283,53.008732 43.352283,53.008732 C 41.234498,52.986812 39.324603,52.107877 37.951402,50.706393 C 36.577494,49.304201 35.738157,47.377334 35.760079,45.260963 C 35.803212,41.024687 39.273691,37.623503 43.507847,37.667344 L 82.011225,38.057666 C 82.243156,38.060495 82.47721,38.076758 82.707019,38.098678 C 82.781971,38.107165 82.85339,38.117771 82.929049,38.126964 C 83.087441,38.146763 83.245128,38.175753 83.403519,38.204038 C 83.479887,38.219595 83.559082,38.235149 83.635449,38.250706 C 83.841219,38.299497 84.042744,38.351117 84.244269,38.415463 C 84.311443,38.435968 84.379325,38.462838 84.444381,38.485466 C 84.59146,38.536378 84.736414,38.589411 84.878544,38.649516 C 84.964103,38.685576 85.046128,38.723761 85.131687,38.761237 C 85.258967,38.81922 85.379884,38.882153 85.503628,38.945082 C 85.57646,38.985388 85.652828,39.022156 85.726368,39.065999 C 85.910922,39.167113 86.092648,39.280958 86.266597,39.401167 C 86.301245,39.421673 86.3366,39.451371 86.372664,39.477534 C 86.520448,39.581479 86.661162,39.691079 86.802585,39.805631 C 86.856324,39.850885 86.909357,39.895435 86.96239,39.942811 C 87.084012,40.050291 87.204927,40.159892 87.320893,40.275858 C 87.366148,40.318284 87.41211,40.361418 87.453829,40.405964 C 87.6101,40.567892 87.758592,40.733356 87.901428,40.90589 C 87.904256,40.908717 87.906377,40.913668 87.906377,40.913668 C 88.044263,41.084081 88.168007,41.261564 88.290336,41.439048 C 88.330641,41.501981 88.373775,41.566328 88.415494,41.633503 C 88.490447,41.755125 88.567522,41.878869 88.635404,42.004733 C 88.681367,42.083223 88.725207,42.163833 88.764097,42.243739 C 88.829148,42.369603 88.889961,42.496884 88.944407,42.626282 C 88.978348,42.704065 89.01512,42.780433 89.048354,42.860336 C 89.050473,42.862457 89.050473,42.862457 89.050473,42.865285 C 89.12755,43.058326 89.194724,43.252781 89.256242,43.447233 C 89.283818,43.532794 89.305738,43.621182 89.326247,43.708157 C 89.36655,43.844627 89.399784,43.983927 89.429482,44.121107 C 89.445748,44.206668 89.466253,44.290813 89.479688,44.376372 C 89.510799,44.555979 89.536962,44.734877 89.556761,44.914482 C 89.561004,44.959736 89.568782,45.004283 89.574439,45.048124 C 89.592824,45.281468 89.602017,45.512693 89.600602,45.74321 C 89.600603,45.765838 89.603432,45.784222 89.604846,45.808265 L 89.214523,84.308815 C 89.172099,88.547215 85.702326,91.946277 81.465338,91.902433 C 77.229062,91.860713 73.830707,88.391648 73.873133,84.156079 L 74.073951,64.170414 L 47.13672,90.56883 C 44.111008,93.53373 39.252479,93.484938 36.288286,90.459937 C 33.324097,87.434933 33.374299,82.573574 36.400009,79.608675 z"
       id="path91"
       style="fill:#ffffff;fill-opacity:1" /></g><path
     d="M 52.923523,30.041713 C 47.866786,25.931927 42.02609,22.908084 35.686419,21.301167 C 24.435004,29.070763 15.86245,41.425121 11.884657,56.118357 C 17.624359,53.271505 23.988028,51.645589 30.706678,51.577593 C 32.40959,51.560594 34.088502,51.652589 35.744416,51.83458 C 39.882201,43.083035 45.788894,35.605424 52.923523,30.041713 z"
     id="path101"
     style="opacity:0.6;fill:url(#linearGradient2615);fill-opacity:1" /></g>









</svg>