<?xml version="1.0" encoding="UTF-8" standalone="no"?>
<!-- Created with Inkscape (http://www.inkscape.org/) -->
<svg
   xmlns:a="http://ns.adobe.com/AdobeSVGViewerExtensions/3.0/"
   xmlns:svg="http://www.w3.org/2000/svg"
   xmlns="http://www.w3.org/2000/svg"
   xmlns:xlink="http://www.w3.org/1999/xlink"
   version="1.0"
   width="48pt"
   height="48pt"
   viewBox="0 0 125.957 125.956"
   id="svg1"
   xml:space="preserve">



<defs
   id="defs106">
  <linearGradient
   id="linearGradient1865">
    <stop
   id="stop2120"
   style="stop-color:#418bde;stop-opacity:1"
   offset="0" />




    <stop
   id="stop1866"
   style="stop-color:#001b7b;stop-opacity:1"
   offset="1" />




  </linearGradient>



  <linearGradient
   id="linearGradient1862">
    <stop
   id="stop1864"
   style="stop-color:#a4cdec;stop-opacity:1"
   offset="0" />




    <stop
   id="stop1863"
   style="stop-color:#0068c6;stop-opacity:1"
   offset="1" />




  </linearGradient>



  <linearGradient
   x1="63.957001"
   y1="-17"
   x2="63.957001"
   y2="87.9981"
   id="XMLID_3_"
   gradientUnits="userSpaceOnUse">
			<stop
   id="stop49"
   style="stop-color:#ffffff;stop-opacity:1"
   offset="0" />







			<stop
   id="stop51"
   style="stop-color:#ffffff;stop-opacity:0"
   offset="1" />







		</linearGradient>



  <linearGradient
   x1="10.3398"
   y1="10.3921"
   x2="73.836899"
   y2="73.889198"
   id="XMLID_4_"
   gradientUnits="userSpaceOnUse">
			<stop
   id="stop58"
   style="stop-color:#ffffff;stop-opacity:1"
   offset="0" />







			<stop
   id="stop60"
   style="stop-color:#ffffff;stop-opacity:0"
   offset="1" />







		</linearGradient>



  <linearGradient
   x1="62.997101"
   y1="168.5029"
   x2="62.997101"
   y2="65.001404"
   id="XMLID_5_"
   gradientUnits="userSpaceOnUse">
			<stop
   id="stop67"
   style="stop-color:#ffffff;stop-opacity:1"
   offset="0" />







			<stop
   id="stop69"
   style="stop-color:#ffffff;stop-opacity:0"
   offset="1" />







		</linearGradient>



  <linearGradient
   x1="33.1147"
   y1="-141.0146"
   x2="33.1147"
   y2="164.3085"
   id="XMLID_7_"
   gradientUnits="userSpaceOnUse"
   gradientTransform="matrix(0.9999,-1.01e-2,1.01e-2,0.9999,-1.1444,0.3543)">
			<stop
   id="stop96"
   style="stop-color:#ffffff;stop-opacity:1"
   offset="0" />







			<stop
   id="stop98"
   style="stop-color:#ffffff;stop-opacity:0"
   offset="1" />







		</linearGradient>



  <linearGradient
   x1="61.226601"
   y1="51.561001"
   x2="61.226601"
   y2="141.4189"
   id="XMLID_6_"
   gradientUnits="userSpaceOnUse"
   gradientTransform="matrix(-1,0,0,1,122.4541,0)">
				<stop
   id="stop78"
   style="stop-color:#000072;stop-opacity:1"
   offset="0" />







				<stop
   id="stop80"
   style="stop-color:#3995e5;stop-opacity:1"
   offset="1" />







				<a:midPointStop
   id="midPointStop82"
   style="stop-color:#000072"
   offset="0" />







				<a:midPointStop
   id="midPointStop84"
   style="stop-color:#000072"
   offset="0.5" />







				<a:midPointStop
   id="midPointStop86"
   style="stop-color:#3995E5"
   offset="1" />







			</linearGradient>



  <linearGradient
   x1="62.977501"
   y1="182.5674"
   x2="62.977501"
   y2="61.8965"
   id="linearGradient1344"
   xlink:href="#linearGradient1862"
   gradientUnits="userSpaceOnUse" />



  <linearGradient
   x1="65.109993"
   y1="13.567519"
   x2="65.109993"
   y2="77.436874"
   id="linearGradient1346"
   xlink:href="#XMLID_3_"
   gradientUnits="userSpaceOnUse" />



  <linearGradient
   x1="26.564838"
   y1="25.929346"
   x2="73.836899"
   y2="73.889198"
   id="linearGradient1348"
   xlink:href="#XMLID_4_"
   gradientUnits="userSpaceOnUse" />



  <linearGradient
   x1="62.997101"
   y1="168.5029"
   x2="62.997101"
   y2="65.001404"
   id="linearGradient1350"
   xlink:href="#XMLID_5_"
   gradientUnits="userSpaceOnUse" />



  <linearGradient
   x1="61.226601"
   y1="51.561001"
   x2="61.226601"
   y2="141.4189"
   id="linearGradient1352"
   xlink:href="#XMLID_6_"
   gradientUnits="userSpaceOnUse"
   gradientTransform="matrix(-1,0,0,1,122.4541,0)" />



  <linearGradient
   x1="31.052742"
   y1="21.61375"
   x2="53.820477"
   y2="60.985329"
   id="linearGradient1354"
   xlink:href="#XMLID_7_"
   gradientUnits="userSpaceOnUse"
   gradientTransform="matrix(0.999949,-1.010049e-2,1.010049e-2,0.999949,0,0)" />



  <linearGradient
   x1="54.390072"
   y1="177.8828"
   x2="54.390072"
   y2="25.958462"
   id="linearGradient2118"
   xlink:href="#linearGradient1865"
   gradientUnits="userSpaceOnUse" />



<linearGradient
   x1="55.34412"
   y1="154.8063"
   x2="55.34412"
   y2="41.343369"
   id="linearGradient2089"
   xlink:href="#linearGradient1865"
   gradientUnits="userSpaceOnUse"
   gradientTransform="scale(1.000004,0.999996)" />


<linearGradient
   x1="55.34412"
   y1="154.8063"
   x2="55.34412"
   y2="41.343369"
   id="linearGradient2092"
   xlink:href="#linearGradient1865"
   gradientUnits="userSpaceOnUse"
   gradientTransform="scale(1.000004,0.999996)" />


<linearGradient
   x1="61.226601"
   y1="51.561001"
   x2="61.226601"
   y2="141.4189"
   id="linearGradient2422"
   xlink:href="#XMLID_6_"
   gradientUnits="userSpaceOnUse"
   gradientTransform="matrix(-1,0,0,1,122.4541,0)" /></defs>















	





















<g
   transform="matrix(0.999948,0,0,0.999948,3.274998e-3,3.274914e-3)"
   id="g1332">
  <path
   d="M 125.957,62.34 C 126.309,97.122 98.396,125.604 63.615,125.956 C 28.833,126.308 0.352,98.396 0,63.614 C -0.352,28.833 27.559,0.352 62.34,0 C 97.123,-0.352 125.604,27.559 125.957,62.34 z"
   id="path18"
   style="fill:url(#linearGradient2092);fill-opacity:1" />



  <path
   d="M 119.287,62.407 C 119.601,93.507 94.646,118.972 63.547,119.287 C 32.449,119.601 6.983,94.646 6.668,63.547 C 6.354,32.449 31.31,6.982 62.408,6.668 C 93.508,6.354 118.973,31.31 119.287,62.407 z"
   id="path45"
   style="fill:url(#linearGradient1344);fill-opacity:1" />



  <path
   d="M 63.455,11.256 C 36.048,11.533 14.054,33.977 14.331,61.383 C 14.346,62.894 14.44,64.385 14.588,65.86 C 28.29,71.58 44.702,74.831 62.319,74.653 C 81.548,74.459 99.263,70.21 113.525,63.191 C 113.568,62.26 113.589,61.323 113.582,60.379 C 113.305,32.973 90.863,10.979 63.455,11.256 z"
   id="path54"
   style="fill:url(#linearGradient1346);fill-opacity:1" />



  <path
   d="M 64.967,16.641 C 89.699,16.391 110.522,33.655 115.662,56.878 C 112.609,30.233 89.85,9.668 62.441,9.945 C 33.152,10.241 9.649,34.226 9.945,63.514 C 10.095,78.342 16.322,91.678 26.228,101.202 C 18.767,92.381 14.219,81.008 14.093,68.554 C 13.806,40.17 36.583,16.928 64.967,16.641 z"
   id="path63"
   style="fill:url(#linearGradient1348);fill-opacity:1" />



  <path
   d="M 63.441,110.722 C 36.996,110.99 15.177,90.542 13.387,64.495 C 13.34,65.472 13.312,66.453 13.323,67.443 C 13.6,94.88 36.066,116.894 63.5,116.616 C 90.936,116.339 112.949,93.875 112.672,66.438 C 112.662,65.449 112.615,64.467 112.547,63.492 C 111.285,89.57 89.885,110.454 63.441,110.722 z"
   id="path72"
   style="opacity:0.5;fill:url(#linearGradient1350)" />



  



  <g
   transform="translate(-2.5904788e-6,-3.2380096e-7)"
   id="g2418"><path
     d="M 89.263,73.47 C 89.263,73.47 68.209,73.257 51.55,73.088 C 58.534,80.216 65.538,87.363 65.538,87.363 C 67.02,88.876 67.749,90.848 67.729,92.81 C 67.709,94.773 66.94,96.729 65.428,98.21 C 62.402,101.175 57.543,101.126 54.58,98.101 L 27.63,70.599 C 27.468,70.433 27.314,70.256 27.167,70.078 C 27.12,70.019 27.077,69.961 27.03,69.901 C 26.932,69.775 26.841,69.643 26.749,69.511 C 26.706,69.446 26.661,69.379 26.618,69.314 C 26.507,69.134 26.401,68.955 26.304,68.767 C 26.271,68.705 26.242,68.638 26.212,68.576 C 26.144,68.436 26.079,68.296 26.021,68.153 C 25.986,68.067 25.955,67.982 25.921,67.895 C 25.872,67.764 25.831,67.634 25.788,67.502 C 25.765,67.422 25.737,67.342 25.716,67.259 C 25.657,67.057 25.609,66.848 25.571,66.64 C 25.561,66.601 25.557,66.555 25.55,66.511 C 25.519,66.333 25.497,66.156 25.478,65.975 C 25.472,65.905 25.466,65.836 25.462,65.765 C 25.452,65.603 25.444,65.44 25.444,65.276 C 25.442,65.214 25.44,65.151 25.442,65.09 C 25.446,64.865 25.458,64.643 25.479,64.42 C 25.479,64.416 25.481,64.411 25.481,64.411 C 25.504,64.193 25.542,63.98 25.581,63.768 C 25.597,63.695 25.612,63.619 25.63,63.542 C 25.663,63.403 25.696,63.261 25.737,63.124 C 25.76,63.036 25.786,62.948 25.815,62.864 C 25.858,62.729 25.905,62.596 25.958,62.466 C 25.989,62.387 26.017,62.307 26.05,62.227 C 26.05,62.224 26.05,62.224 26.052,62.222 C 26.134,62.031 26.224,61.846 26.318,61.665 C 26.359,61.585 26.406,61.507 26.453,61.431 C 26.521,61.306 26.596,61.184 26.672,61.066 C 26.721,60.994 26.766,60.92 26.817,60.85 C 26.922,60.701 27.03,60.556 27.143,60.415 C 27.172,60.38 27.198,60.343 27.225,60.308 C 27.377,60.13 27.534,59.96 27.698,59.798 C 27.714,59.782 27.725,59.767 27.741,59.749 L 55.241,32.801 C 58.268,29.834 63.125,29.884 66.09,32.911 C 69.056,35.936 69.006,40.792 65.981,43.757 L 51.707,57.747 L 89.421,58.128 C 93.657,58.171 97.058,61.641 97.015,65.876 C 96.972,70.111 93.499,73.513 89.263,73.47 z"
     id="path89"
     style="opacity:0.2;fill:url(#linearGradient2422)" /><path
     d="M 89.263,71.47 C 89.263,71.47 68.209,71.257 51.55,71.088 C 58.534,78.216 65.538,85.363 65.538,85.363 C 67.02,86.876 67.749,88.848 67.729,90.81 C 67.709,92.773 66.94,94.729 65.428,96.21 C 62.402,99.175 57.543,99.126 54.58,96.101 L 27.63,68.599 C 27.468,68.433 27.314,68.256 27.167,68.078 C 27.12,68.019 27.077,67.961 27.03,67.901 C 26.932,67.775 26.841,67.643 26.749,67.511 C 26.706,67.446 26.661,67.379 26.618,67.314 C 26.507,67.134 26.401,66.955 26.304,66.767 C 26.271,66.705 26.242,66.638 26.212,66.576 C 26.144,66.436 26.079,66.296 26.021,66.153 C 25.986,66.067 25.955,65.982 25.921,65.895 C 25.872,65.764 25.831,65.634 25.788,65.502 C 25.765,65.422 25.737,65.342 25.716,65.259 C 25.657,65.057 25.609,64.848 25.571,64.64 C 25.561,64.601 25.557,64.555 25.55,64.511 C 25.519,64.333 25.497,64.156 25.478,63.975 C 25.472,63.905 25.466,63.836 25.462,63.765 C 25.452,63.603 25.444,63.44 25.444,63.276 C 25.442,63.214 25.44,63.151 25.442,63.09 C 25.446,62.865 25.458,62.643 25.479,62.42 C 25.479,62.416 25.481,62.411 25.481,62.411 C 25.504,62.193 25.542,61.98 25.581,61.768 C 25.597,61.695 25.612,61.619 25.63,61.542 C 25.663,61.403 25.696,61.261 25.737,61.124 C 25.76,61.036 25.786,60.948 25.815,60.864 C 25.858,60.729 25.905,60.596 25.958,60.466 C 25.989,60.387 26.017,60.307 26.05,60.227 C 26.05,60.224 26.05,60.224 26.052,60.222 C 26.134,60.031 26.224,59.846 26.318,59.665 C 26.359,59.585 26.406,59.507 26.453,59.431 C 26.521,59.306 26.596,59.184 26.672,59.066 C 26.721,58.994 26.766,58.92 26.817,58.85 C 26.922,58.701 27.03,58.556 27.143,58.415 C 27.172,58.38 27.198,58.343 27.225,58.308 C 27.377,58.13 27.534,57.96 27.698,57.798 C 27.714,57.782 27.725,57.767 27.741,57.749 L 55.241,30.801 C 58.268,27.834 63.125,27.884 66.09,30.911 C 69.056,33.936 69.006,38.792 65.981,41.757 L 51.707,55.747 L 89.421,56.128 C 93.657,56.171 97.058,59.641 97.015,63.876 C 96.972,68.111 93.499,71.513 89.263,71.47 z"
     id="path91"
     style="fill:#ffffff;fill-opacity:1" /></g>



  <path
   d="M 52.923,30.04 C 47.866,25.93 42.025,22.906 35.685,21.299 C 24.433,29.069 15.86,41.424 11.882,56.118 C 17.622,53.271 23.986,51.645 30.705,51.577 C 32.408,51.56 34.087,51.652 35.743,51.834 C 39.881,43.082 45.788,35.604 52.923,30.04 z"
   id="path101"
   style="opacity:0.6;fill:url(#linearGradient1354);fill-opacity:1" />



</g>









</svg>