<?xml version="1.0" encoding="UTF-8" standalone="no"?>
<!-- Created with Inkscape (http://www.inkscape.org/) -->
<svg
   xmlns:a="http://ns.adobe.com/AdobeSVGViewerExtensions/3.0/"
   xmlns:svg="http://www.w3.org/2000/svg"
   xmlns="http://www.w3.org/2000/svg"
   xmlns:xlink="http://www.w3.org/1999/xlink"
   version="1.0"
   width="48pt"
   height="48pt"
   viewBox="0 0 125.957 125.956"
   id="svg1"
   xml:space="preserve">



<defs
   id="defs106">
  <linearGradient
   id="linearGradient1865">
    <stop
   id="stop2120"
   style="stop-color:#418bde;stop-opacity:1"
   offset="0" />




    <stop
   id="stop1866"
   style="stop-color:#001b7b;stop-opacity:1"
   offset="1" />




  </linearGradient>



  <linearGradient
   id="linearGradient1862">
    <stop
   id="stop1864"
   style="stop-color:#a4cdec;stop-opacity:1"
   offset="0" />




    <stop
   id="stop1863"
   style="stop-color:#0068c6;stop-opacity:1"
   offset="1" />




  </linearGradient>



  <linearGradient
   x1="63.957001"
   y1="-17"
   x2="63.957001"
   y2="87.9981"
   id="XMLID_3_"
   gradientUnits="userSpaceOnUse">
			<stop
   id="stop49"
   style="stop-color:#ffffff;stop-opacity:1"
   offset="0" />







			<stop
   id="stop51"
   style="stop-color:#ffffff;stop-opacity:0"
   offset="1" />







		</linearGradient>



  <linearGradient
   x1="10.3398"
   y1="10.3921"
   x2="73.836899"
   y2="73.889198"
   id="XMLID_4_"
   gradientUnits="userSpaceOnUse">
			<stop
   id="stop58"
   style="stop-color:#ffffff;stop-opacity:1"
   offset="0" />







			<stop
   id="stop60"
   style="stop-color:#ffffff;stop-opacity:0"
   offset="1" />







		</linearGradient>



  <linearGradient
   x1="62.997101"
   y1="168.5029"
   x2="62.997101"
   y2="65.001404"
   id="XMLID_5_"
   gradientUnits="userSpaceOnUse">
			<stop
   id="stop67"
   style="stop-color:#ffffff;stop-opacity:1"
   offset="0" />







			<stop
   id="stop69"
   style="stop-color:#ffffff;stop-opacity:0"
   offset="1" />







		</linearGradient>



  <linearGradient
   x1="33.1147"
   y1="-141.0146"
   x2="33.1147"
   y2="164.3085"
   id="XMLID_7_"
   gradientUnits="userSpaceOnUse"
   gradientTransform="matrix(0.9999,-1.01e-2,1.01e-2,0.9999,-1.1444,0.3543)">
			<stop
   id="stop96"
   style="stop-color:#ffffff;stop-opacity:1"
   offset="0" />







			<stop
   id="stop98"
   style="stop-color:#ffffff;stop-opacity:0"
   offset="1" />







		</linearGradient>



  <linearGradient
   x1="61.226601"
   y1="51.561001"
   x2="61.226601"
   y2="141.4189"
   id="XMLID_6_"
   gradientUnits="userSpaceOnUse"
   gradientTransform="matrix(-1,0,0,1,122.4541,0)">
				<stop
   id="stop78"
   style="stop-color:#000072;stop-opacity:1"
   offset="0" />







				<stop
   id="stop80"
   style="stop-color:#3995e5;stop-opacity:1"
   offset="1" />







				<a:midPointStop
   id="midPointStop82"
   style="stop-color:#000072"
   offset="0" />







				<a:midPointStop
   id="midPointStop84"
   style="stop-color:#000072"
   offset="0.5" />







				<a:midPointStop
   id="midPointStop86"
   style="stop-color:#3995E5"
   offset="1" />







			</linearGradient>



  <linearGradient
   x1="62.977501"
   y1="182.5674"
   x2="62.977501"
   y2="61.8965"
   id="linearGradient1344"
   xlink:href="#linearGradient1862"
   gradientUnits="userSpaceOnUse" />



  <linearGradient
   x1="65.109993"
   y1="13.567519"
   x2="65.109993"
   y2="77.436874"
   id="linearGradient1346"
   xlink:href="#XMLID_3_"
   gradientUnits="userSpaceOnUse" />



  <linearGradient
   x1="26.564838"
   y1="25.929346"
   x2="73.836899"
   y2="73.889198"
   id="linearGradient1348"
   xlink:href="#XMLID_4_"
   gradientUnits="userSpaceOnUse" />



  <linearGradient
   x1="62.997101"
   y1="168.5029"
   x2="62.997101"
   y2="65.001404"
   id="linearGradient1350"
   xlink:href="#XMLID_5_"
   gradientUnits="userSpaceOnUse" />



  <linearGradient
   x1="61.226601"
   y1="51.561001"
   x2="61.226601"
   y2="141.4189"
   id="linearGradient1352"
   xlink:href="#XMLID_6_"
   gradientUnits="userSpaceOnUse"
   gradientTransform="matrix(-1,0,0,1,122.4541,0)" />



  <linearGradient
   x1="31.052742"
   y1="21.61375"
   x2="53.820477"
   y2="60.985329"
   id="linearGradient1354"
   xlink:href="#XMLID_7_"
   gradientUnits="userSpaceOnUse"
   gradientTransform="matrix(0.999949,-1.010049e-2,1.010049e-2,0.999949,0,0)" />



  <linearGradient
   x1="54.390072"
   y1="177.8828"
   x2="54.390072"
   y2="25.958462"
   id="linearGradient2118"
   xlink:href="#linearGradient1865"
   gradientUnits="userSpaceOnUse" />



<linearGradient
   x1="55.34412"
   y1="154.8063"
   x2="55.34412"
   y2="41.343369"
   id="linearGradient2089"
   xlink:href="#linearGradient1865"
   gradientUnits="userSpaceOnUse"
   gradientTransform="scale(1.000004,0.999996)" />


<linearGradient
   x1="55.34412"
   y1="154.8063"
   x2="55.34412"
   y2="41.343369"
   id="linearGradient2092"
   xlink:href="#linearGradient1865"
   gradientUnits="userSpaceOnUse"
   gradientTransform="scale(1.000004,0.999996)" />


<linearGradient
   x1="61.226601"
   y1="51.561001"
   x2="61.226601"
   y2="141.4189"
   id="linearGradient2422"
   xlink:href="#XMLID_6_"
   gradientUnits="userSpaceOnUse"
   gradientTransform="matrix(-0.7071068,0.7071068,0.7071068,0.7071068,58.909555,-24.400112)" /></defs>















	





















<g
   transform="matrix(0.999948,0,0,0.999948,3.274998e-3,3.274914e-3)"
   id="g1332">
  <path
   d="M 125.957,62.34 C 126.309,97.122 98.396,125.604 63.615,125.956 C 28.833,126.308 0.352,98.396 0,63.614 C -0.352,28.833 27.559,0.352 62.34,0 C 97.123,-0.352 125.604,27.559 125.957,62.34 z"
   id="path18"
   style="fill:url(#linearGradient2092);fill-opacity:1" />



  <path
   d="M 119.287,62.407 C 119.601,93.507 94.646,118.972 63.547,119.287 C 32.449,119.601 6.983,94.646 6.668,63.547 C 6.354,32.449 31.31,6.982 62.408,6.668 C 93.508,6.354 118.973,31.31 119.287,62.407 z"
   id="path45"
   style="fill:url(#linearGradient1344);fill-opacity:1" />



  <path
   d="M 63.455,11.256 C 36.048,11.533 14.054,33.977 14.331,61.383 C 14.346,62.894 14.44,64.385 14.588,65.86 C 28.29,71.58 44.702,74.831 62.319,74.653 C 81.548,74.459 99.263,70.21 113.525,63.191 C 113.568,62.26 113.589,61.323 113.582,60.379 C 113.305,32.973 90.863,10.979 63.455,11.256 z"
   id="path54"
   style="fill:url(#linearGradient1346);fill-opacity:1" />



  <path
   d="M 64.967,16.641 C 89.699,16.391 110.522,33.655 115.662,56.878 C 112.609,30.233 89.85,9.668 62.441,9.945 C 33.152,10.241 9.649,34.226 9.945,63.514 C 10.095,78.342 16.322,91.678 26.228,101.202 C 18.767,92.381 14.219,81.008 14.093,68.554 C 13.806,40.17 36.583,16.928 64.967,16.641 z"
   id="path63"
   style="fill:url(#linearGradient1348);fill-opacity:1" />



  <path
   d="M 63.441,110.722 C 36.996,110.99 15.177,90.542 13.387,64.495 C 13.34,65.472 13.312,66.453 13.323,67.443 C 13.6,94.88 36.066,116.894 63.5,116.616 C 90.936,116.339 112.949,93.875 112.672,66.438 C 112.662,65.449 112.615,64.467 112.547,63.492 C 111.285,89.57 89.885,110.454 63.441,110.722 z"
   id="path72"
   style="opacity:0.5;fill:url(#linearGradient1350)" />



  



  <g
   transform="translate(-2.5904788e-6,-3.2380096e-7)"
   id="g2418"><path
     d="M 87.391039,51.020676 C 87.391039,51.020676 72.352999,65.757488 60.453806,77.417679 C 70.432497,77.519502 80.438765,77.620618 80.438765,77.620618 C 82.556549,77.642539 84.466445,78.521472 85.839646,79.922958 C 87.213555,81.325151 88.05289,83.252017 88.03097,85.368387 C 87.987837,89.604664 84.517357,93.005848 80.283201,92.962007 L 41.779823,92.571684 C 41.547892,92.568856 41.313839,92.552592 41.08403,92.530672 C 41.009076,92.522187 40.937659,92.51158 40.861998,92.502388 C 40.703606,92.482589 40.545921,92.453597 40.387529,92.425313 C 40.311162,92.409757 40.231966,92.3942 40.155598,92.378644 C 39.94983,92.329854 39.748305,92.278235 39.546779,92.213888 C 39.479604,92.193382 39.411722,92.166512 39.346668,92.143885 C 39.19959,92.092973 39.054633,92.03994 38.912505,91.979836 C 38.826945,91.943773 38.74492,91.90559 38.65936,91.868113 C 38.532081,91.81013 38.411166,91.747198 38.287422,91.684265 C 38.21459,91.64396 38.138223,91.607191 38.064684,91.56335 C 37.880129,91.462234 37.698402,91.348389 37.524454,91.228181 C 37.489806,91.207675 37.454451,91.177977 37.418388,91.151814 C 37.270603,91.047869 37.129889,90.938268 36.988467,90.823716 C 36.934727,90.778461 36.881694,90.733914 36.828661,90.686538 C 36.707039,90.579057 36.586123,90.469456 36.470158,90.35349 C 36.424903,90.311064 36.378941,90.26793 36.337222,90.223383 C 36.180951,90.061455 36.032459,89.895992 35.889623,89.723458 C 35.886795,89.72063 35.884673,89.71568 35.884673,89.71568 C 35.746788,89.545267 35.623044,89.367783 35.500714,89.1903 C 35.460409,89.127367 35.417276,89.06302 35.375557,88.995845 C 35.300603,88.874223 35.223529,88.750479 35.155646,88.624614 C 35.109684,88.546125 35.065844,88.465515 35.026953,88.385612 C 34.961899,88.259747 34.901088,88.132468 34.846641,88.003067 C 34.8127,87.925286 34.77593,87.848918 34.742696,87.769015 C 34.740575,87.766894 34.740575,87.766894 34.740575,87.764065 C 34.6635,87.571025 34.596325,87.376571 34.534807,87.182116 C 34.507229,87.096556 34.485309,87.008168 34.464803,86.921194 C 34.424498,86.784722 34.391264,86.645422 34.361565,86.508244 C 34.345302,86.422684 34.324796,86.338538 34.311361,86.252978 C 34.280248,86.073373 34.254085,85.894475 34.234286,85.71487 C 34.230044,85.669615 34.222265,85.625067 34.216609,85.581227 C 34.198224,85.347881 34.189031,85.116657 34.190446,84.886141 C 34.190446,84.863513 34.187617,84.845128 34.186203,84.821087 L 34.576526,46.320537 C 34.618952,42.082139 38.088725,38.683076 42.325709,38.726917 C 46.561986,38.768636 49.960341,42.237702 49.917915,46.473272 L 49.717096,66.458938 L 76.654329,40.06052 C 79.680039,37.095622 84.53857,37.144412 87.502761,40.169415 C 90.466953,43.194418 90.416748,48.055777 87.391039,51.020676 z"
     id="path89"
     style="opacity:0.2;fill:url(#linearGradient2422)" /><path
     d="M 85.976825,49.606462 C 85.976825,49.606462 70.938785,64.343274 59.039592,76.003465 C 69.018283,76.105289 79.024551,76.206405 79.024551,76.206405 C 81.142336,76.228325 83.052231,77.107259 84.425433,78.508745 C 85.799341,79.910937 86.638677,81.837803 86.616757,83.954174 C 86.573623,88.190451 83.103143,91.591634 78.868988,91.547794 L 40.365609,91.157471 C 40.133678,91.154642 39.899626,91.138379 39.669816,91.116458 C 39.594863,91.107973 39.523445,91.097367 39.447785,91.088174 C 39.289393,91.068375 39.131708,91.039384 38.973316,91.0111 C 38.896948,90.995543 38.817752,90.979987 38.741385,90.96443 C 38.535617,90.91564 38.334091,90.864021 38.132566,90.799675 C 38.065391,90.779168 37.997509,90.752298 37.932455,90.729671 C 37.785376,90.678759 37.64042,90.625726 37.498291,90.565622 C 37.412731,90.52956 37.330707,90.491376 37.245147,90.453899 C 37.117868,90.395917 36.996952,90.332984 36.873209,90.270052 C 36.800377,90.229747 36.724009,90.192977 36.65047,90.149136 C 36.465915,90.04802 36.284189,89.934176 36.110241,89.813968 C 36.075592,89.793462 36.040237,89.763763 36.004175,89.7376 C 35.856389,89.633656 35.715675,89.524054 35.574254,89.409503 C 35.520513,89.364248 35.46748,89.3197 35.414447,89.272324 C 35.292825,89.164844 35.17191,89.055242 35.055944,88.939277 C 35.010689,88.89685 34.964728,88.853717 34.923008,88.809169 C 34.766738,88.647242 34.618245,88.481779 34.47541,88.309245 C 34.472581,88.306416 34.47046,88.301466 34.47046,88.301466 C 34.332574,88.131054 34.20883,87.95357 34.086501,87.776086 C 34.046196,87.713153 34.003062,87.648807 33.961343,87.581632 C 33.88639,87.460009 33.809315,87.336266 33.741433,87.210401 C 33.695471,87.131912 33.65163,87.051302 33.612739,86.971398 C 33.547686,86.845533 33.486874,86.718254 33.432427,86.588854 C 33.398486,86.511072 33.361716,86.434704 33.328482,86.354801 C 33.326361,86.35268 33.326361,86.35268 33.326361,86.349852 C 33.249286,86.156811 33.182111,85.962357 33.120593,85.767903 C 33.093016,85.682343 33.071096,85.593954 33.050589,85.50698 C 33.010284,85.370509 32.97705,85.231209 32.947352,85.09403 C 32.931088,85.00847 32.910582,84.924324 32.897147,84.838764 C 32.866035,84.659159 32.839872,84.480261 32.820073,84.300656 C 32.81583,84.255401 32.808052,84.210854 32.802395,84.167013 C 32.78401,83.933668 32.774818,83.702444 32.776232,83.471927 C 32.776232,83.4493 32.773404,83.430915 32.771989,83.406873 L 33.162312,44.906323 C 33.204739,40.667925 36.674512,37.268863 40.911496,37.312703 C 45.147772,37.354423 48.546127,40.823489 48.503701,45.059058 L 48.302883,65.044724 L 75.240116,38.646307 C 78.265826,35.681408 83.124356,35.730198 86.088548,38.755201 C 89.052739,41.780204 89.002535,46.641563 85.976825,49.606462 z"
     id="path91"
     style="fill:#ffffff;fill-opacity:1" /></g>



  <path
   d="M 52.923,30.04 C 47.866,25.93 42.025,22.906 35.685,21.299 C 24.433,29.069 15.86,41.424 11.882,56.118 C 17.622,53.271 23.986,51.645 30.705,51.577 C 32.408,51.56 34.087,51.652 35.743,51.834 C 39.881,43.082 45.788,35.604 52.923,30.04 z"
   id="path101"
   style="opacity:0.6;fill:url(#linearGradient1354);fill-opacity:1" />



</g>









</svg>