<?xml version="1.0" encoding="UTF-8" standalone="no"?>
<!-- Created with Inkscape (http://www.inkscape.org/) -->
<svg
   xmlns:a="http://ns.adobe.com/AdobeSVGViewerExtensions/3.0/"
   xmlns:svg="http://www.w3.org/2000/svg"
   xmlns="http://www.w3.org/2000/svg"
   xmlns:xlink="http://www.w3.org/1999/xlink"
   version="1.0"
   width="48pt"
   height="48pt"
   viewBox="0 0 125.957 125.956"
   id="svg1"
   xml:space="preserve">







<defs
   id="defs106">
  <linearGradient
   id="linearGradient1865">
    <stop
   id="stop2120"
   style="stop-color:#41de61;stop-opacity:1"
   offset="0" />






    <stop
   id="stop1866"
   style="stop-color:#007b11;stop-opacity:1"
   offset="1" />






  </linearGradient>





  <linearGradient
   id="linearGradient1862">
    <stop
   id="stop1864"
   style="stop-color:#a4ecac;stop-opacity:1"
   offset="0" />






    <stop
   id="stop1863"
   style="stop-color:#00c631;stop-opacity:1"
   offset="1" />






  </linearGradient>





  <linearGradient
   x1="63.957001"
   y1="-17"
   x2="63.957001"
   y2="87.9981"
   id="XMLID_3_"
   gradientUnits="userSpaceOnUse">
			<stop
   id="stop49"
   style="stop-color:#ffffff;stop-opacity:1"
   offset="0" />









			<stop
   id="stop51"
   style="stop-color:#ffffff;stop-opacity:0"
   offset="1" />









		</linearGradient>





  <linearGradient
   x1="10.3398"
   y1="10.3921"
   x2="73.836899"
   y2="73.889198"
   id="XMLID_4_"
   gradientUnits="userSpaceOnUse">
			<stop
   id="stop58"
   style="stop-color:#ffffff;stop-opacity:1"
   offset="0" />









			<stop
   id="stop60"
   style="stop-color:#ffffff;stop-opacity:0"
   offset="1" />









		</linearGradient>





  <linearGradient
   x1="62.997101"
   y1="168.5029"
   x2="62.997101"
   y2="65.001404"
   id="XMLID_5_"
   gradientUnits="userSpaceOnUse">
			<stop
   id="stop67"
   style="stop-color:#ffffff;stop-opacity:1"
   offset="0" />









			<stop
   id="stop69"
   style="stop-color:#ffffff;stop-opacity:0"
   offset="1" />









		</linearGradient>





  <linearGradient
   x1="33.1147"
   y1="-141.0146"
   x2="33.1147"
   y2="164.3085"
   id="XMLID_7_"
   gradientUnits="userSpaceOnUse"
   gradientTransform="matrix(0.9999,-1.01e-2,1.01e-2,0.9999,-1.1444,0.3543)">
			<stop
   id="stop96"
   style="stop-color:#ffffff;stop-opacity:1"
   offset="0" />









			<stop
   id="stop98"
   style="stop-color:#ffffff;stop-opacity:0"
   offset="1" />









		</linearGradient>





  <linearGradient
   x1="61.226601"
   y1="51.561001"
   x2="61.226601"
   y2="141.4189"
   id="XMLID_6_"
   gradientUnits="userSpaceOnUse"
   gradientTransform="matrix(-1,0,0,1,122.4541,0)">
				<stop
   id="stop78"
   style="stop-color:#000072;stop-opacity:1"
   offset="0" />









				<stop
   id="stop80"
   style="stop-color:#3995e5;stop-opacity:1"
   offset="1" />









				<a:midPointStop
   id="midPointStop82"
   style="stop-color:#000072"
   offset="0" />









				<a:midPointStop
   id="midPointStop84"
   style="stop-color:#000072"
   offset="0.5" />









				<a:midPointStop
   id="midPointStop86"
   style="stop-color:#3995E5"
   offset="1" />









			</linearGradient>





  <linearGradient
   x1="62.977501"
   y1="182.5674"
   x2="62.977501"
   y2="61.8965"
   id="linearGradient1344"
   xlink:href="#linearGradient1862"
   gradientUnits="userSpaceOnUse" />





  <linearGradient
   x1="65.109993"
   y1="13.567519"
   x2="65.109993"
   y2="77.436874"
   id="linearGradient1346"
   xlink:href="#XMLID_3_"
   gradientUnits="userSpaceOnUse" />





  <linearGradient
   x1="26.564838"
   y1="25.929346"
   x2="73.836899"
   y2="73.889198"
   id="linearGradient1348"
   xlink:href="#XMLID_4_"
   gradientUnits="userSpaceOnUse" />





  <linearGradient
   x1="62.997101"
   y1="168.5029"
   x2="62.997101"
   y2="65.001404"
   id="linearGradient1350"
   xlink:href="#XMLID_5_"
   gradientUnits="userSpaceOnUse" />





  <linearGradient
   x1="61.226601"
   y1="51.561001"
   x2="61.226601"
   y2="141.4189"
   id="linearGradient1352"
   xlink:href="#XMLID_6_"
   gradientUnits="userSpaceOnUse"
   gradientTransform="matrix(-1,0,0,1,122.4541,0)" />





  <linearGradient
   x1="31.052742"
   y1="21.61375"
   x2="53.820477"
   y2="60.985329"
   id="linearGradient1354"
   xlink:href="#XMLID_7_"
   gradientUnits="userSpaceOnUse"
   gradientTransform="matrix(0.999949,-1.010049e-2,1.010049e-2,0.999949,0,0)" />





  <linearGradient
   x1="54.390072"
   y1="177.8828"
   x2="54.390072"
   y2="25.958462"
   id="linearGradient2118"
   xlink:href="#linearGradient1865"
   gradientUnits="userSpaceOnUse" />





<linearGradient
   x1="55.34412"
   y1="154.8063"
   x2="55.34412"
   y2="41.343369"
   id="linearGradient2089"
   xlink:href="#linearGradient1865"
   gradientUnits="userSpaceOnUse"
   gradientTransform="scale(1.000004,0.999996)" />




<linearGradient
   x1="55.34412"
   y1="154.8063"
   x2="55.34412"
   y2="41.343369"
   id="linearGradient2092"
   xlink:href="#linearGradient1865"
   gradientUnits="userSpaceOnUse"
   gradientTransform="scale(1.000004,0.999996)" />





  


  


  


  


  


  


  


  










  
  
  
  
  
  
  
  















  

  

  

  

  

  

  

  

<linearGradient
   x1="31.052742"
   y1="21.61375"
   x2="53.820477"
   y2="60.985329"
   id="linearGradient2426"
   xlink:href="#XMLID_7_"
   gradientUnits="userSpaceOnUse"
   gradientTransform="matrix(0.9998974,-1.0099964e-2,1.0099964e-2,0.9998974,3.2768439e-3,3.2747711e-3)" /><linearGradient
   x1="64.781639"
   y1="51.855011"
   x2="122.68676"
   y2="51.855011"
   id="linearGradient2430"
   xlink:href="#linearGradient1865"
   gradientUnits="userSpaceOnUse"
   gradientTransform="matrix(0.7860634,0,0,1.3032148,-0.763964,-0.76396)" /><linearGradient
   x1="62.997101"
   y1="168.5029"
   x2="62.997101"
   y2="65.001404"
   id="linearGradient2433"
   xlink:href="#XMLID_5_"
   gradientUnits="userSpaceOnUse"
   gradientTransform="matrix(0.999948,0,0,0.999948,3.2768439e-3,3.2747711e-3)" /><linearGradient
   x1="26.564838"
   y1="25.929346"
   x2="73.836899"
   y2="73.889198"
   id="linearGradient2436"
   xlink:href="#XMLID_4_"
   gradientUnits="userSpaceOnUse"
   gradientTransform="matrix(0.999948,0,0,0.999948,3.2768439e-3,3.2747711e-3)" /><linearGradient
   x1="65.109993"
   y1="13.567519"
   x2="65.109993"
   y2="77.436874"
   id="linearGradient2439"
   xlink:href="#XMLID_3_"
   gradientUnits="userSpaceOnUse"
   gradientTransform="matrix(0.999948,0,0,0.999948,3.2768439e-3,3.2747711e-3)" /><linearGradient
   x1="62.977501"
   y1="182.5674"
   x2="62.977501"
   y2="61.8965"
   id="linearGradient2442"
   xlink:href="#linearGradient1862"
   gradientUnits="userSpaceOnUse"
   gradientTransform="matrix(0.999948,0,0,0.999948,3.2768439e-3,3.2747711e-3)" /><linearGradient
   x1="55.34412"
   y1="154.8063"
   x2="55.34412"
   y2="41.343369"
   id="linearGradient2445"
   xlink:href="#linearGradient1865"
   gradientUnits="userSpaceOnUse"
   gradientTransform="matrix(0.999952,0,0,0.9999439,3.2768439e-3,3.2747711e-3)" /></defs>

















	





















<path
   d="M 125.95372,62.340031 C 126.3057,97.120222 98.394158,125.60074 63.614967,125.95273 C 28.834777,126.3047 0.35525856,98.394156 0.0032768439,63.613965 C -0.34870485,28.834775 27.560843,0.35525648 62.340033,0.0032747711 C 97.121224,-0.34870692 125.60074,27.560841 125.95372,62.340031 z"
   id="path18"
   style="fill:url(#linearGradient2445);fill-opacity:1" /><path
   d="M 119.28407,62.407028 C 119.59806,93.50541 94.644353,118.96908 63.546971,119.28407 C 32.450588,119.59805 6.9859136,94.644351 6.67093,63.546969 C 6.3569463,32.450586 31.311649,6.9849116 62.40803,6.6709279 C 93.506412,6.3569442 118.97009,31.311646 119.28407,62.407028 z"
   id="path45"
   style="fill:url(#linearGradient2442);fill-opacity:1" /><path
   d="M 63.454976,11.25869 C 36.049401,11.535675 14.056546,33.978507 14.333532,61.383082 C 14.34853,62.894003 14.442526,64.384926 14.590518,65.859848 C 28.291805,71.579552 44.702951,74.830382 62.319035,74.652391 C 81.547035,74.458401 99.261113,70.209622 113.52237,63.190988 C 113.56537,62.260036 113.58636,61.323085 113.57937,60.379134 C 113.30238,32.974559 90.86155,10.981704 63.454976,11.25869 z"
   id="path54"
   style="fill:url(#linearGradient2439);fill-opacity:1" /><path
   d="M 64.966897,16.643409 C 89.69761,16.393423 110.51953,33.656524 115.65926,56.878316 C 112.60642,30.234702 89.848603,9.6707715 62.441029,9.9477574 C 33.153552,10.243742 9.6517749,34.227495 9.9477595,63.513971 C 10.097751,78.341199 16.324428,91.676506 26.229913,101.20001 C 18.769301,92.379469 14.221537,81.007061 14.095544,68.553709 C 13.808558,40.171185 36.584373,16.930395 64.966897,16.643409 z"
   id="path63"
   style="fill:url(#linearGradient2436);fill-opacity:1" /><path
   d="M 63.440977,110.71952 C 36.997352,110.9875 15.179487,90.540565 13.389581,64.49492 C 13.342582,65.471869 13.314584,66.452818 13.325584,67.442767 C 13.60257,94.878339 36.067401,116.8912 63.499974,116.61321 C 90.934546,116.33623 112.9464,93.873392 112.66941,66.437819 C 112.65941,65.44887 112.61242,64.466921 112.54443,63.491972 C 111.28249,89.568615 89.883601,110.45152 63.440977,110.71952 z"
   id="path72"
   style="opacity:0.5;fill:url(#linearGradient2433)" /><path
   d="M 50.1585,96.373757 C 50.180027,98.486658 51.007751,100.59202 52.635213,102.18612 C 55.89229,105.37754 61.122342,105.32479 64.311607,102.06879 L 93.31961,72.466642 C 93.493981,72.287965 93.659742,72.09745 93.817966,71.905857 C 93.868556,71.84235 93.91484,71.779921 93.965429,71.71534 C 94.070912,71.579718 94.168861,71.437638 94.267887,71.295558 C 94.314171,71.225594 94.362606,71.153478 94.408891,71.083514 C 94.528367,70.889769 94.642462,70.697101 94.746869,70.494745 C 94.782389,70.42801 94.813604,70.355892 94.845895,70.289158 C 94.919087,70.138467 94.989051,69.987776 95.05148,69.833856 C 95.089152,69.74129 95.122519,69.649798 95.159116,69.556155 C 95.211858,69.415151 95.255989,69.275224 95.302273,69.133143 C 95.327028,69.047034 95.357167,68.960925 95.379771,68.871587 C 95.443276,68.654162 95.494942,68.429202 95.535843,68.205317 C 95.546607,68.16334 95.550913,68.113827 95.558447,68.066467 C 95.591814,67.874875 95.615494,67.684357 95.635946,67.489536 C 95.642403,67.414191 95.648862,67.339921 95.653167,67.2635 C 95.663931,67.089129 95.672542,66.913681 95.672542,66.737158 C 95.674694,66.670423 95.676847,66.602612 95.674694,66.536955 C 95.67039,66.294772 95.657473,66.055819 95.634869,65.81579 C 95.634869,65.811486 95.632716,65.806103 95.632716,65.806103 C 95.607961,65.571456 95.567058,65.342191 95.525079,65.114002 C 95.507858,65.035426 95.491713,64.953623 95.472338,64.870743 C 95.436818,64.721128 95.401299,64.568284 95.357167,64.420823 C 95.332411,64.326104 95.304426,64.231383 95.27321,64.140969 C 95.226928,63.995659 95.176337,63.852503 95.119291,63.712576 C 95.085924,63.627543 95.055785,63.541434 95.020266,63.455325 C 95.020266,63.452096 95.020266,63.452096 95.018113,63.449943 C 94.929851,63.244357 94.832978,63.045231 94.7318,62.850408 C 94.687668,62.764298 94.63708,62.680342 94.586491,62.598539 C 94.513297,62.463994 94.432571,62.332677 94.350767,62.205667 C 94.298025,62.128168 94.249589,62.048517 94.194694,61.973172 C 94.081676,61.812793 93.965429,61.65672 93.843799,61.504954 C 93.812585,61.467281 93.7846,61.427456 93.755537,61.389783 C 93.59193,61.19819 93.422942,61.015208 93.246418,60.840837 C 93.229196,60.823615 93.217356,60.807471 93.200133,60.788095 L 63.600131,31.782245 C 60.341978,28.588674 52.008853,27.755284 51.92266,31.900645 L 50.1585,96.373757 z"
   id="path1366"
   style="opacity:0.2;fill:url(#linearGradient2430);fill-opacity:1" /><path
   d="M 48.134238,94.349495 C 48.155765,96.462396 48.983489,98.567762 50.610951,100.16186 C 53.868028,103.35328 59.09808,103.30053 62.287345,100.04453 L 91.295348,70.44238 C 91.469719,70.263703 91.63548,70.073188 91.793704,69.881595 C 91.844294,69.818088 91.890578,69.755659 91.941167,69.691078 C 92.04665,69.555456 92.144599,69.413376 92.243625,69.271296 C 92.289909,69.201332 92.338344,69.129216 92.384629,69.059252 C 92.504105,68.865507 92.6182,68.672839 92.722607,68.470483 C 92.758127,68.403748 92.789342,68.33163 92.821633,68.264896 C 92.894825,68.114205 92.964789,67.963514 93.027218,67.809594 C 93.06489,67.717028 93.098257,67.625536 93.134854,67.531893 C 93.187596,67.390889 93.231727,67.250962 93.278011,67.108881 C 93.302766,67.022772 93.332905,66.936663 93.355509,66.847325 C 93.419014,66.6299 93.47068,66.40494 93.511581,66.181055 C 93.522345,66.139078 93.526651,66.089565 93.534185,66.042205 C 93.567552,65.850613 93.591232,65.660095 93.611684,65.465274 C 93.618141,65.389929 93.6246,65.315659 93.628905,65.239238 C 93.639669,65.064867 93.64828,64.889419 93.64828,64.712896 C 93.650432,64.646161 93.652585,64.57835 93.650432,64.512693 C 93.646128,64.27051 93.633211,64.031557 93.610607,63.791528 C 93.610607,63.787224 93.608454,63.781841 93.608454,63.781841 C 93.583699,63.547194 93.542796,63.317929 93.500817,63.08974 C 93.483596,63.011164 93.467451,62.929361 93.448076,62.846481 C 93.412556,62.696866 93.377037,62.544022 93.332905,62.396561 C 93.308149,62.301842 93.280164,62.207121 93.248948,62.116707 C 93.202666,61.971397 93.152075,61.828241 93.095029,61.688314 C 93.061662,61.603281 93.031523,61.517172 92.996004,61.431063 C 92.996004,61.427834 92.996004,61.427834 92.993851,61.425681 C 92.905589,61.220095 92.808716,61.020969 92.707538,60.826146 C 92.663406,60.740036 92.612818,60.65608 92.562229,60.574277 C 92.489035,60.439732 92.408309,60.308415 92.326505,60.181405 C 92.273763,60.103906 92.225327,60.024255 92.170432,59.94891 C 92.057414,59.788531 91.941167,59.632458 91.819537,59.480692 C 91.788323,59.443019 91.760338,59.403194 91.731275,59.365521 C 91.567668,59.173928 91.39868,58.990946 91.222156,58.816575 C 91.204934,58.799353 91.193094,58.783209 91.175871,58.763833 L 61.575869,29.757983 C 58.317716,26.564412 49.898398,26.748928 49.898398,33.070238 L 48.134238,94.349495 z"
   id="path91"
   style="fill:#ffffff;fill-opacity:1" /><path
   d="M 52.923524,30.041713 C 47.866787,25.931926 42.026091,22.908083 35.686421,21.301167 C 24.435006,29.070762 15.862452,41.42512 11.884658,56.118356 C 17.62436,53.271504 23.98803,51.645588 30.70668,51.577592 C 32.409591,51.560592 34.088504,51.652588 35.744418,51.834578 C 39.882202,43.083034 45.788895,35.605423 52.923524,30.041713 z"
   id="path101"
   style="opacity:0.6;fill:url(#linearGradient2426);fill-opacity:1" />











</svg>