/* XPM */
static char *2[] = {
/* columns rows colors chars-per-pixel */
"28 24 14 1",
"  c #003366",
". c #336699",
"X c #666699",
"o c #669999",
"O c gray60",
"+ c #9999cc",
"@ c #99cccc",
"# c gray80",
"$ c #ccccff",
"% c #ccffcc",
"& c #ccffff",
"* c #ffffcc",
"= c white",
"- c None",
/* pixels */
"----------------------------",
"-------------.*-------------",
"------------- .#------------",
"-------------   O-----------",
"-------------    X=---------",
"-------------     .#--------",
"-------------       @-------",
"-.                   o------",
"-.                    .#----",
"-.                      #---",
"-.                       O--",
"-.                        X&",
"-.                        O-",
"-.                       #--",
"-.                     .=---",
"-.                    o-----",
"-.                   #------",
"-------------      .#-------",
"-------------     o$--------",
"-------------    +----------",
"-------------  .#-----------",
"------------- X%------------",
"-------------O--------------",
"----------------------------"
};
