/* XPM */
static char *1[] = {
/* columns rows colors chars-per-pixel */
"24 28 16 1",
"  c #003366",
". c #006666",
"X c #006699",
"o c #336699",
"O c #666699",
"+ c #669999",
"@ c #6699cc",
"# c gray60",
"$ c #9999cc",
"% c #99cccc",
"& c gray80",
"* c #ccccff",
"= c #ffcccc",
"- c #ffccff",
"; c white",
": c None",
/* pixels */
"::::::::::::::::::::::::",
":::::::::::%-:::::::::::",
"::::::::::& +:::::::::::",
":::::::::;o  $::::::::::",
":::::::::O    &:::::::::",
"::::::::$     o=::::::::",
":::::::&.      +::::::::",
"::::::;o        $:::::::",
"::::::O          &::::::",
":::::$           o&:::::",
"::::&             +:::::",
":::;X              #::::",
":::O                &:::",
"::#                 o&::",
":*                   +::",
":+ooOoo          ooooo&:",
":::::::          :::::::",
":::::::          :::::::",
":::::::          :::::::",
":::::::          :::::::",
":::::::          :::::::",
":::::::          :::::::",
":::::::          :::::::",
":::::::          :::::::",
":::::::          :::::::",
":::::::          :::::::",
":::::::          :::::::",
":::::::#@#@#@#@#+:::::::"
};
