/* XPM */
static char *4[] = {
/* columns rows colors chars-per-pixel */
"28 24 16 1",
"  c #003366",
". c #006666",
"X c #336666",
"o c #003399",
"O c #336699",
"+ c #666699",
"@ c #669999",
"# c #6699cc",
"$ c gray60",
"% c #9999cc",
"& c #99cccc",
"* c gray80",
"= c #ccccff",
"- c #ffffcc",
"; c white",
": c None",
/* pixels */
"::::::::::::::::::::::::::::",
"::::::::::::::%%::::::::::::",
":::::::::::::@ $::::::::::::",
":::::::::::*O  $::::::::::::",
"::::::::::*o   #::::::::::::",
":::::::::$     $::::::::::::",
":::::::;O      O$#$#$#$@%@$=",
"::::::*O                   *",
":::::%                     *",
":::;@                      *",
"::*O                       &",
":&                         *",
":=O                        &",
"::-+                       *",
"::::%.                     *",
":::::*O                    &",
"::::::;O       O$#$#$#$@%@%=",
"::::::::$      $::::::::::::",
":::::::::*     #::::::::::::",
"::::::::::;X   $::::::::::::",
"::::::::::::@  $::::::::::::",
":::::::::::::%.%::::::::::::",
"::::::::::::::*%::::::::::::",
"::::::::::::::::::::::::::::"
};
